<?xml version="1.0" encoding="iso-8859-1" standalone="yes"?><!DOCTYPE svg PUBLIC "-//W3C//DTD SVG 1.1//EN" "http://www.w3.org/Graphics/SVG/1.1/DTD/svg11.dtd"[<!ENTITY ns_flows "http://ns.adobe.com/Flows/1.0/"><!ENTITY ns_extend "http://ns.adobe.com/Extensibility/1.0/"><!ENTITY ns_ai "http://ns.adobe.com/AdobeIllustrator/10.0/"><!ENTITY ns_graphs "http://ns.adobe.com/Graphs/1.0/">]><svg version="1.1" xmlns:x="&ns_extend;" xmlns:i="&ns_ai;" xmlns:graph="&ns_graphs;" xmlns="http://www.w3.org/2000/svg" xmlns:xlink="http://www.w3.org/1999/xlink" xmlns:a="http://ns.adobe.com/AdobeSVGViewerExtensions/3.0/" x="0px" y="0px" width="32px" height="32px" viewBox="0 0 32 32" style="enable-background:new 0 0 32 32;" xml:space="preserve"><g><path d="M8.356,15.308c0-0.304,0.099-0.607,0.303-0.908C11.78,11.17,20.141,2.792,22.757,0.068c0.205-0.103,0.304-0.103,0.406,0.099c0.401,0.403,0.603,1.109,0.401,1.414c-2.316,3.028-7.753,10.395-10.374,13.928c1.915,3.23,7.049,11.102,9.67,14.832c0.2,0.305-0.104,1.114-0.403,1.517c-0.102,0.099-0.2,0.201-0.303,0.099C19.132,28.525,11.98,20.152,8.758,16.113c-0.303-0.304-0.401-0.604-0.401-0.707V15.308z" /></g><style type="text/css"><![CDATA[* { fill: #808080 !important; }svg { -webkit-transform-origin: center; -moz-transform-origin: center; transform-origin: center; -webkit-transform: scaleX(-1); -moz-transform: scaleX(-1); transform: scaleX(-1); }]]></style></svg>