<?xml version="1.0" encoding="utf-8"?><!-- Generator: Adobe Illustrator 18.1.1, SVG Export Plug-In . SVG Version: 6.00 Build 0)  --><svg version="1.1" id="Layer_1_copy" xmlns="http://www.w3.org/2000/svg" xmlns:xlink="http://www.w3.org/1999/xlink" x="0px"	 y="0px" viewBox="0 0 945.3 174.5" enable-background="new 0 0 945.3 174.5" xml:space="preserve"><g>	<g>		<path fill="#006A71" stroke="#006A71" stroke-miterlimit="10" d="M178.3,173.7c-2.7,0-4.7-1-6-2l-0.2-1.4c1.6,1.3,3.5,2.4,6.3,2.4			c3.1,0,5.5-2,5.5-4.8c0-2.8-1.6-4.3-5.3-5.7c-3.9-1.6-5.6-3.3-5.6-6.2c0-2.5,1.9-5.1,6.1-5.1c1.8,0,3.5,0.6,4.5,1.3l-0.3,1			c-1-0.7-2.7-1.3-4.3-1.3c-3.4,0-4.9,2.1-4.9,4.1c0,2.3,1.3,3.8,4.6,5.1c4.1,1.6,6.3,3.4,6.3,6.8C185,171.4,182,173.7,178.3,173.7z			"/>		<path fill="#006A71" stroke="#006A71" stroke-miterlimit="10" d="M208.1,152.1v21.5H207v-21.5h-8.3v-1h17.8v1H208.1z"/>		<path fill="#006A71" stroke="#006A71" stroke-miterlimit="10" d="M240.3,173.8c-6.5,0-11.6-4.9-11.6-11.6s5.1-11.6,11.6-11.6			c6.5,0,11.6,5,11.6,11.6S246.8,173.8,240.3,173.8z M240.3,151.7c-5.9,0-10.5,4.5-10.5,10.5s4.6,10.5,10.5,10.5			c5.9,0,10.4-4.5,10.4-10.5S246.2,151.7,240.3,151.7z"/>		<path fill="#006A71" stroke="#006A71" stroke-miterlimit="10" d="M282.1,173.5l-8-10.8h-4.6v10.8h-1.1V151h5.5			c3.7,0,6.4,2.5,6.4,5.9c0,2.9-1.9,5.1-4.9,5.7l8.1,11H282.1z M273.8,152.1h-4.3v9.6h4.4c2.9,0,5.2-2,5.2-4.8			C279.2,154.1,276.9,152.1,273.8,152.1z"/>		<path fill="#006A71" stroke="#006A71" stroke-miterlimit="10" d="M297.8,173.5V151h11.2v1H299v9.6h8.1v1H299v9.8h11.4v1H297.8z"/>		<path fill="#006A71" stroke="#006A71" stroke-miterlimit="10" d="M333.9,163.1v10.4h-1.2v-10.4l-8.5-12.1h1.3l5.2,7.4			c0.8,1.2,1.8,2.5,2.5,3.7h0.1c0.8-1.2,1.7-2.5,2.6-3.7l5.3-7.4h1.3L333.9,163.1z"/>	</g>	<g>		<path fill="#BBB23C" stroke="#BBB23C" stroke-miterlimit="10" d="M12.6,69.4c-5.2,0-8.9-1.8-11.4-3.7L0.7,63			c3,2.5,6.7,4.5,11.9,4.5c5.9,0,10.5-3.7,10.5-9.1c0-5.2-3.1-8.1-10-10.8C5.7,44.6,2.6,41.2,2.6,35.8c0-4.7,3.5-9.7,11.4-9.7			c3.5,0,6.7,1.2,8.6,2.5L22,30.5C20.2,29.2,17,28,14,28c-6.4,0-9.3,4-9.3,7.7c0,4.3,2.4,7.2,8.7,9.7c7.8,3.1,11.8,6.4,11.8,12.8			C25.2,65,19.6,69.4,12.6,69.4z"/>	</g>	<g>		<path fill="#006A71" stroke="#006A71" stroke-miterlimit="10" d="M183.9,48.5h-9.3V69h-2.1V26.5h11.1c7.1,0,12,4.8,12,11			C195.6,43.8,190.7,48.5,183.9,48.5z M183.4,28.4h-8.8v18.2h9.1c5.5,0,9.9-3.7,9.9-9.1C193.5,32.2,189.1,28.4,183.4,28.4z"/>	</g>	<g>		<path fill="#006A71" stroke="#006A71" stroke-miterlimit="10" d="M398.3,174h-0.4l-4.7-14.2c-0.8-2.4-1.6-4.6-2.4-7.2h-0.1			c-0.7,2.5-1.5,4.7-2.3,7.2l-4.8,14.2h-0.5l-7.9-23h1.2l4.7,13.7c0.8,2.2,1.6,4.7,2.3,6.9h0.1c0.6-2.2,1.4-4.6,2.2-6.9l4.6-13.7			h1.1l4.6,13.7c0.8,2.4,1.6,4.8,2.2,6.9h0.1c0.6-2,1.4-4.4,2.2-6.9l4.7-13.7h1.1L398.3,174z"/>		<path fill="#006A71" stroke="#006A71" stroke-miterlimit="10" d="M422.6,173.5V151h1.1v22.5H422.6z"/>		<path fill="#006A71" stroke="#006A71" stroke-miterlimit="10" d="M441.7,173.5V151h1.1v21.5h11.1v1H441.7z"/>		<path fill="#006A71" stroke="#006A71" stroke-miterlimit="10" d="M480.3,173.5l-11.4-11.1h0v11.1h-1.1V151h1.1v11h0l10.9-11h1.4			l-11,11.1l11.6,11.3H480.3z"/>		<path fill="#006A71" stroke="#006A71" stroke-miterlimit="10" d="M496.2,173.5V151h1.1v22.5H496.2z"/>		<path fill="#006A71" stroke="#006A71" stroke-miterlimit="10" d="M534.4,173.7L522.9,160c-2-2.4-4.3-5.2-5.8-7.1l-0.1,0			c0.1,2.1,0.1,4.4,0.1,6.8v13.7h-1.1V151h0.8l11.3,13.5c1.8,2.1,3.9,4.7,5.5,6.7l0.1,0c0-2.3-0.1-4.4-0.1-6.6V151h1.1v22.7H534.4z"			/>		<path fill="#006A71" stroke="#006A71" stroke-miterlimit="10" d="M558.3,173.7c-2.7,0-4.7-1-6-2l-0.2-1.4c1.6,1.3,3.5,2.4,6.3,2.4			c3.1,0,5.5-2,5.5-4.8c0-2.8-1.6-4.3-5.3-5.7c-3.9-1.6-5.6-3.3-5.6-6.2c0-2.5,1.9-5.1,6.1-5.1c1.8,0,3.5,0.6,4.5,1.3l-0.3,1			c-1-0.7-2.7-1.3-4.3-1.3c-3.4,0-4.9,2.1-4.9,4.1c0,2.3,1.3,3.8,4.6,5.1c4.1,1.6,6.3,3.4,6.3,6.8C565,171.4,562,173.7,558.3,173.7z			"/>	</g>	<g>		<path fill="#006A71" stroke="#006A71" stroke-miterlimit="10" d="M605.4,162.7h-4.9v10.8h-1.1V151h5.9c3.7,0,6.4,2.5,6.4,5.9			C611.7,160.2,609,162.7,605.4,162.7z M605.2,152.1h-4.7v9.6h4.8c2.9,0,5.2-2,5.2-4.8C610.5,154.1,608.2,152.1,605.2,152.1z"/>		<path fill="#006A71" stroke="#006A71" stroke-miterlimit="10" d="M643.5,173.5v-10.8h-14.4v10.8H628V151h1.1v10.6h14.4V151h1.2			v22.5H643.5z"/>		<path fill="#006A71" stroke="#006A71" stroke-miterlimit="10" d="M672.8,173.8c-6.5,0-11.6-4.9-11.6-11.6s5.1-11.6,11.6-11.6			c6.5,0,11.6,5,11.6,11.6S679.3,173.8,672.8,173.8z M672.8,151.7c-5.9,0-10.5,4.5-10.5,10.5s4.6,10.5,10.5,10.5			c5.8,0,10.4-4.5,10.4-10.5S678.7,151.7,672.8,151.7z"/>		<path fill="#006A71" stroke="#006A71" stroke-miterlimit="10" d="M706.1,152.1v21.5h-1.1v-21.5h-8.3v-1h17.8v1H706.1z"/>		<path fill="#006A71" stroke="#006A71" stroke-miterlimit="10" d="M738.3,173.8c-6.5,0-11.6-4.9-11.6-11.6s5.1-11.6,11.6-11.6			s11.6,5,11.6,11.6S744.8,173.8,738.3,173.8z M738.3,151.7c-5.8,0-10.5,4.5-10.5,10.5s4.6,10.5,10.5,10.5c5.9,0,10.4-4.5,10.4-10.5			S744.1,151.7,738.3,151.7z"/>		<path fill="#006A71" stroke="#006A71" stroke-miterlimit="10" d="M777.1,173.8c-6.6,0-11.7-4.9-11.7-11.6			c0-6.7,5.2-11.6,11.7-11.6c2.7,0,5.1,0.7,6.8,1.7l-0.3,1c-1.6-1-4-1.7-6.5-1.7c-5.9,0-10.6,4.5-10.6,10.5s4.7,10.5,10.6,10.5			c3.1,0,5.5-0.8,7-1.9v-6.9h-6.9v-1h8v8.4C783.2,172.9,780.5,173.8,777.1,173.8z"/>		<path fill="#006A71" stroke="#006A71" stroke-miterlimit="10" d="M816.1,173.5l-8-10.8h-4.6v10.8h-1.1V151h5.5			c3.7,0,6.4,2.5,6.4,5.9c0,2.9-1.9,5.1-4.9,5.7l8.1,11H816.1z M807.9,152.1h-4.3v9.6h4.4c2.9,0,5.2-2,5.2-4.8			C813.2,154.1,810.9,152.1,807.9,152.1z"/>		<path fill="#006A71" stroke="#006A71" stroke-miterlimit="10" d="M847.3,173.5l-2.7-6.9h-10.4l-2.7,6.9h-1.2l8.8-22.8h0.5			l8.8,22.8H847.3z M841,157.1c-0.5-1.4-1-2.8-1.5-4.3h-0.1c-0.5,1.5-1,2.9-1.5,4.3l-3.3,8.6h9.6L841,157.1z"/>		<path fill="#006A71" stroke="#006A71" stroke-miterlimit="10" d="M870.7,162.7h-4.9v10.8h-1.1V151h5.9c3.7,0,6.4,2.5,6.4,5.9			C876.9,160.2,874.3,162.7,870.7,162.7z M870.4,152.1h-4.7v9.6h4.8c2.9,0,5.2-2,5.2-4.8C875.8,154.1,873.5,152.1,870.4,152.1z"/>		<path fill="#006A71" stroke="#006A71" stroke-miterlimit="10" d="M908.8,173.5v-10.8h-14.4v10.8h-1.1V151h1.1v10.6h14.4V151h1.2			v22.5H908.8z"/>		<path fill="#006A71" stroke="#006A71" stroke-miterlimit="10" d="M935.7,163.1v10.4h-1.2v-10.4L926,151h1.3l5.2,7.4			c0.8,1.2,1.8,2.5,2.5,3.7h0.1c0.8-1.2,1.7-2.5,2.6-3.7l5.3-7.4h1.3L935.7,163.1z"/>	</g>	<g>		<path fill="#BBB23C" stroke="#BBB23C" stroke-miterlimit="10" d="M95.1,69.9h-0.8l-8.9-26.8c-1.5-4.5-3.1-8.7-4.5-13.5h-0.1			c-1.4,4.8-2.8,8.9-4.3,13.5l-9.1,26.8h-0.9L51.7,26.5h2.2l8.9,25.9c1.5,4.2,3.1,8.8,4.3,13h0.1c1.2-4.1,2.7-8.7,4.1-13L80,26.5			h2.1l8.7,25.8c1.5,4.6,2.9,9.1,4.1,13h0.1c1.1-3.9,2.6-8.4,4.1-13l8.9-25.9h2.1L95.1,69.9z"/>	</g>	<g>		<path fill="#BBB23C" stroke="#BBB23C" stroke-miterlimit="10" d="M156.5,95.6c-13.6,0-17.7-11.2-17.7-25.5c0-9.8-2.4-17.7-9.4-22			c7.1-4.5,9.4-12.3,9.4-22c0-14.3,4-25.5,17.7-25.5l1.1,2.7c-12.4,0-15.5,9.9-15.5,22.8c0,9.6-2.4,17.3-8.4,22			c6,4.7,8.4,12.5,8.4,22c0,13,3.1,22.8,15.5,22.8L156.5,95.6z"/>	</g></g></svg>