<?xml version="1.0" encoding="utf-8"?>
<!-- Generator: Adobe Illustrator 18.1.1, SVG Export Plug-In . SVG Version: 6.00 Build 0)  -->
<svg version="1.1" id="Layer_1_copy" xmlns="http://www.w3.org/2000/svg" xmlns:xlink="http://www.w3.org/1999/xlink" x="0px"
	 y="0px" viewBox="0 0 120.2 120" enable-background="new 0 0 120.2 120" xml:space="preserve">
<g>
	<g>
		<path fill="#BBB23C" stroke="#BBB23C" stroke-miterlimit="10" d="M8,73c-3.2,0-5.4-1.1-6.9-2.3l-0.3-1.6c1.8,1.5,4.1,2.7,7.3,2.7
			c3.6,0,6.4-2.3,6.4-5.6c0-3.2-1.9-4.9-6.1-6.6c-4.5-1.8-6.4-3.9-6.4-7.1c0-2.9,2.2-5.9,7-5.9c2.1,0,4.1,0.7,5.2,1.5l-0.4,1.2
			c-1.1-0.8-3.1-1.5-4.9-1.5c-3.9,0-5.7,2.4-5.7,4.7c0,2.6,1.5,4.4,5.3,5.9c4.8,1.9,7.2,3.9,7.2,7.8C15.7,70.4,12.3,73,8,73z"/>
	</g>
	<g>
		<path fill="#006A71" stroke="#006A71" stroke-miterlimit="10" d="M112.4,60.3h-5.6v12.5h-1.3V46.8h6.8c4.3,0,7.3,2.9,7.3,6.7
			C119.6,57.4,116.6,60.3,112.4,60.3z M112.2,48h-5.4v11.1h5.5c3.4,0,6-2.3,6-5.5C118.3,50.3,115.6,48,112.2,48z"/>
	</g>
	<g>
		<path fill="#BBB23C" stroke="#BBB23C" stroke-miterlimit="10" d="M58.3,73.3h-0.5L52.4,57c-0.9-2.7-1.9-5.3-2.7-8.2h-0.1
			c-0.9,2.9-1.7,5.4-2.6,8.2l-5.5,16.4h-0.5l-9.1-26.5h1.3l5.4,15.8c0.9,2.6,1.9,5.4,2.6,7.9h0.1c0.7-2.5,1.6-5.3,2.5-8l5.3-15.8
			h1.3l5.3,15.8c0.9,2.8,1.8,5.6,2.5,8h0.1c0.7-2.4,1.6-5.1,2.5-7.9l5.4-15.8h1.3L58.3,73.3z"/>
	</g>
	<g>
		<path fill="#BBB23C" stroke="#BBB23C" stroke-miterlimit="10" d="M95.8,89C87.5,89,85,82.2,85,73.4c0-6-1.5-10.8-5.8-13.4
			c4.3-2.7,5.8-7.5,5.8-13.4C85,37.8,87.5,31,95.8,31l0.7,1.6c-7.5,0-9.4,6-9.4,13.9c0,5.8-1.5,10.6-5.1,13.4
			c3.7,2.9,5.1,7.6,5.1,13.4c0,7.9,1.9,13.9,9.4,13.9L95.8,89z"/>
	</g>
</g>
</svg>
